<mxfile host="app.diagrams.net" modified="2023-04-01T08:34:38.952Z" agent="Mozilla/5.0 (Macintosh; Intel Mac OS X 10_15_7) AppleWebKit/537.36 (KHTML, like Gecko) Chrome/111.0.0.0 Safari/537.36" version="21.1.1" etag="3pdwmHcJJ8tlReuDIcWm" type="github">
  <diagram name="第 1 页" id="G18l2_iF89eQzb9kzUqR">
    <mxGraphModel>
      <root>
        <mxCell id="0" />
        <mxCell id="1" parent="0" />
      </root>
    </mxGraphModel>
  </diagram>
</mxfile>
